/* XPM */
static char *b6e9cc14332745cba389b988093ce93d[] = {
/* columns rows colors chars-per-pixel */
"24 24 43 1 ",
"  c #EBBA16",
". c #ECBA16",
"X c #EABB1C",
"o c #ECC026",
"O c #D5BE70",
"+ c #D5BF75",
"@ c #D3BE7B",
"# c #EECB41",
"$ c #EFCB44",
"% c #EECE49",
"& c #EFCE4A",
"* c #EFCF4A",
"= c #EFCE4B",
"- c #F0CF49",
"; c #F0CE4A",
": c #F0D050",
"> c #F1D25A",
", c #F0D572",
"< c #F0D874",
"1 c #D2BE85",
"2 c #D1BF86",
"3 c #D1C087",
"4 c #E7D38D",
"5 c #F1DD8E",
"6 c #F0DE9A",
"7 c #F2DF9F",
"8 c #D5CFB1",
"9 c #DBD5B7",
"0 c #D7D2BD",
"q c #D9D4BB",
"w c #F2E2A1",
"e c #DBD6C2",
"r c #E2DDC6",
"t c #E1DCC8",
"y c #E4DFCC",
"u c #E7E2CC",
"i c #F4ECCE",
"p c #EAE4D0",
"a c #F4EDD6",
"s c #F3EED9",
"d c #F4EFDB",
"f c #F4EFDC",
"g c None",
/* pixels */
"gggggggggggggggggggggggg",
"gggggggggggggggggggggggg",
"g.......gggggggggggggggg",
"       . ggggggggggggggg",
"  O++++++@22222222223ggg",
"  2222222222222222222ggg",
"  39dfffffffffffffffdfgg",
" X8qffffffffffffffffffgg",
" 4rufp0dyedttdeyf0pddsgg",
" 7ff<&&&&&&&&&&&&&&&&&&&",
" 7fa&&&&&&&&&&&&&&&&&&&;",
" 7fw&&&&&&&&&&&&&&&&&&&g",
" 7f>&&&&&&&&&&&&&&&&&&&g",
" 7i&&&&&&&&&&&&&&&&&&&&g",
" 75&&&&&&&&&&&&&&&&&&&gg",
" 6:&&&&&&&&&&&&&&&&&&&gg",
" ,&&&&&&&&&&&&&&&&&&&-gg",
" $&&&&&&&&&&&&&&&&&&&ggg",
" &&&&&&&&&&&&&&&&&&&&ggg",
"o&&&&&&&&&&&&&&&&&&&gggg",
"#&&&&&&&&&&&&&&&&&&&gggg",
"&&&&&&%&&&&%%&&&&&&ggggg",
"gggggggggggggggggggggggg",
"gggggggggggggggggggggggg"
};
