/* XPM */
static char *_521e5324a764d08902a74b81c7c8034[] = {
/* columns rows colors chars-per-pixel */
"16 16 35 1 ",
"  c #EBBA16",
". c #EBBA1A",
"X c #E9BB1E",
"o c #EBBC1C",
"O c #EBBC1F",
"+ c #E8B922",
"@ c #E9BA22",
"# c #ECC025",
"$ c #D5BE71",
"% c #EFCB41",
"& c #EFCD4A",
"* c #EFCE4A",
"= c #EFCF4A",
"- c #EFCE4B",
"; c #F0CE4A",
": c #F0D050",
"> c #D9C379",
", c #F0D879",
"< c #D1BF86",
"1 c #F1DC8D",
"2 c #DED6B8",
"3 c #E2DDC4",
"4 c #E8E3CE",
"5 c #F3E9C2",
"6 c #E9E4D0",
"7 c #ECE7D2",
"8 c #EDE8D4",
"9 c #EFEAD7",
"0 c #F3EDD0",
"q c #F0EBD7",
"w c #F4EDD5",
"e c #F3EEDB",
"r c #F4EFDB",
"t c #F4EFDC",
"y c None",
/* pixels */
"yyyyyyyyyyyyyyyy",
"yyyyyyyyyyyyyyyy",
" X@@@@yyyyyyyyyy",
" $<<<<<<<<<<<<yy",
" >3tttttttttttty",
".24948677684qtwy",
"Ot0*************",
"Ot1*************",
"Oe:************y",
"O5*************y",
"O,************;y",
"O*************yy",
"#*************yy",
"%************yyy",
"yyyyyyyyyyyyyyyy",
"yyyyyyyyyyyyyyyy"
};
